<?xml version="1.0" ?><svg viewBox="0 0 64 64" xmlns="http://www.w3.org/2000/svg"><defs><style>.cls-1{fill:#dbe4eb;}.cls-2{fill:#e7ecf0;}.cls-3{fill:#94d8e5;}.cls-4{fill:#f7f8fa;}</style></defs><g id="Shark"><path class="cls-1" d="M16.82,32.76a17.19,17.19,0,0,0,2.69-4.87c.29-1-.59-1.58-1.57-1.29l-3.3,1-1.29,1.36S13.26,32.59,16.82,32.76Z" id="path144203-8"/><path class="cls-1" d="M34.47,34.9,34,31.11a1.35,1.35,0,0,1,1.58-1.64A8.26,8.26,0,0,1,41.25,34c-.22.19-2.57,3.12-2.57,3.12Z" id="path144509-6"/><path class="cls-2" d="M52.24,45.72A7.14,7.14,0,0,0,55,41.42a2.64,2.64,0,0,0-1.92-2.71c-1.41-.41-2.5-2.4-3.79-3-7.32-3.44-14.92-1-19.08.54-10.13,3-16-3.35-16-13.32a2.35,2.35,0,0,1,2.08-2.14,7.79,7.79,0,0,0,6-5.6c.06-.23.12-.47.16-.71.23-1.39-.72-1.62-1.92-.88A7.75,7.75,0,0,1,9.58,10.68,1.85,1.85,0,0,0,8.47,9.62c-.38-.06-.74.2-1,.86-.09.23-.16.46-.23.7a7.76,7.76,0,0,0,2.29,7.74,3.19,3.19,0,0,1,1,3.06,21.62,21.62,0,0,0-.77,7.08,23.24,23.24,0,0,0,.58,4.05c6.4,11.09,14.35,13.53,21.4,14.47S52.24,45.72,52.24,45.72Z" id="path149463-0"/><path class="cls-1" d="M27.73,49.07l-1.65,4.59a13.94,13.94,0,0,0,6.54-1.26l2-.78-.05-3.83S31.7,43.44,27.73,49.07Z" id="path143189-8"/><path class="cls-3" d="M46.63,26.52a2.46,2.46,0,1,1-2.45-2.46A2.45,2.45,0,0,1,46.63,26.52Z" id="path150728-2"/><path class="cls-3" d="M53.51,16.63a3.91,3.91,0,1,1-3.91-3.91A3.91,3.91,0,0,1,53.51,16.63Z" id="path150833-0"/><path class="cls-3" d="M39.47,17a2.13,2.13,0,1,1-2.12-2.13A2.12,2.12,0,0,1,39.47,17Z" id="path151585-6"/><path class="cls-1" d="M8.33,9.61c-.33,0-.63.29-.84.87-.09.23-.16.46-.23.7a8.59,8.59,0,0,0-.2,1A7.93,7.93,0,0,0,10.33,14a7.69,7.69,0,0,0,3.16.17,7.73,7.73,0,0,1-3.91-3.5A1.85,1.85,0,0,0,8.47,9.62Zm13.35,3.58a2.35,2.35,0,0,0-1.19.41,7.76,7.76,0,0,1-2.28,1l0,.15a7.76,7.76,0,0,1-6,5.59,2.94,2.94,0,0,0-1.52.82,2.55,2.55,0,0,1-.08.87c-.17.63-.32,1.26-.44,1.89.48,7.73,4.69,13,11.81,12.63-5-1.58-7.77-6.73-7.78-13.57a2.35,2.35,0,0,1,2.08-2.14,7.79,7.79,0,0,0,6-5.6c.06-.23.12-.47.16-.71C22.55,13.61,22.23,13.19,21.68,13.19ZM41.6,34a17,17,0,0,1,3.59,1.23c1.29.6,2.38,2.59,3.79,3a2.63,2.63,0,0,1,1.92,2.71,7.17,7.17,0,0,1-2.72,4.3,17,17,0,0,1-2.5,1.62c3.71-.55,6.56-1.13,6.56-1.13A7.14,7.14,0,0,0,55,41.42a2.64,2.64,0,0,0-1.92-2.71c-1.41-.41-2.5-2.4-3.79-3A18.5,18.5,0,0,0,41.6,34Z" id="path176185"/><path class="cls-4" d="M10.38,33.11h0c2.23,9.45,10.26,14.66,21.58,17l.85.17,9.42,0a25.15,25.15,0,0,0,4.43-1.5,23.61,23.61,0,0,0,5.58-3.07c-6.25-2.6-13.06-3.08-23.19-1.63C17.77,45.71,14.68,34.91,10.38,33.11Z" id="path145802-8"/><path class="cls-2" d="M48.91,44.56c-.23.23-.47.45-.73.67a24.24,24.24,0,0,1-5.59,3.07,26,26,0,0,1-4.43,1.5H30.53c.47.11.94.23,1.43.33l.85.17,9.42,0a25.15,25.15,0,0,0,4.43-1.5,23.61,23.61,0,0,0,5.58-3.07A27.31,27.31,0,0,0,48.91,44.56Z" id="path176187"/><path class="cls-2" d="M42.69,49.23c-3.25,8.42-10.42,7.08-10.42,7.08l.67-7.38c.2-2.21,1-2.61,3.24-2.65l4.87-.1A2.12,2.12,0,0,1,42.69,49.23Z" id="path89004-6-7"/><path d="M9.61,21.71a22.7,22.7,0,0,0-.81,7.41c.59,10.05,6.52,17,17.64,20.59l-1.3,3.62a1,1,0,0,0,.1.87,1,1,0,0,0,.74.46s.32,0,.8,0a15.37,15.37,0,0,0,4.7-.78l-.21,2.31a1,1,0,0,0,.81,1.08,8.16,8.16,0,0,0,1.19.08,10.62,10.62,0,0,0,9.66-6.25,27.82,27.82,0,0,0,4.13-1.42C51,48,55.19,45.84,56,41.6a3.64,3.64,0,0,0-2.63-3.85,4.9,4.9,0,0,1-1.67-1.34,7.15,7.15,0,0,0-2-1.61A19.66,19.66,0,0,0,41.83,33a9.23,9.23,0,0,0-6.08-4.5,2.27,2.27,0,0,0-2,.53A2.52,2.52,0,0,0,33,31.24l.4,2.91c-1.41.4-2.59.83-3.47,1.15-4.1,1.23-7.63.86-10.21-1a9,9,0,0,1-1.59-1.56,16.49,16.49,0,0,0,2.38-4.51,2,2,0,0,0-.47-2,2.34,2.34,0,0,0-2.34-.5l-2.23.67a21.43,21.43,0,0,1-.27-3.38c0-.6.65-1,1.27-1.16a8.83,8.83,0,0,0,6.79-6.32,7.78,7.78,0,0,0,.17-.81,2,2,0,0,0-.72-2.16c-.4-.27-1.29-.6-2.71.27a6.76,6.76,0,0,1-9.5-2.54c-.79-1.47-1.73-1.63-2.21-1.6a2,2,0,0,0-1.7,1.52c-.1.26-.18.52-.26.79a8.74,8.74,0,0,0,2.59,8.74A2.2,2.2,0,0,1,9.61,21.71ZM27.5,52.66l.86-2.38c1.09.3,2.2.59,3.37.83l-.05.58A13.73,13.73,0,0,1,27.5,52.66Zm5.89,2.74h0L33.93,49c.13-1.47.3-1.71,2.27-1.74l4.87-.1h0a.84.84,0,0,1,.58.38,1.38,1.38,0,0,1,.1,1.31C39.5,54.7,35.28,55.4,33.39,55.4Zm12.87-7.53a25.07,25.07,0,0,1-2.43.92,3.25,3.25,0,0,0-.53-2.37A2.83,2.83,0,0,0,41,45.18l-4.87.1c-2.47,0-4,.64-4.22,3.56l0,.26C21.64,46.9,15.18,42.6,12.38,36c.42.46.84,1,1.29,1.5,3.08,3.68,7.3,8.72,15.52,7.54,9-1.29,15.27-1,20.9.91A32.51,32.51,0,0,1,46.26,47.87ZM34.94,31a.57.57,0,0,1,.12-.48.27.27,0,0,1,.26,0A7.21,7.21,0,0,1,39.46,33a29.47,29.47,0,0,0-4.15.62ZM18.23,27.56c.21-.07.34,0,.32.05a13.26,13.26,0,0,1-1.65,3.3,13,13,0,0,1-1-2.64Zm-10-16.12a6.17,6.17,0,0,1,.19-.61l0-.06a2.07,2.07,0,0,1,.25.38A8.76,8.76,0,0,0,21,14.45a2.14,2.14,0,0,1,.41-.2s0,0,0,.06a6.21,6.21,0,0,1-.14.62,6.77,6.77,0,0,1-5.23,4.87,3.31,3.31,0,0,0-2.89,3.13c0,4.84,1.48,10.06,5.33,12.93,3.1,2.3,7.24,2.77,12,1.33,6-2.17,12.21-3.44,18.32-.58a6,6,0,0,1,1.38,1.2,6.34,6.34,0,0,0,2.55,1.86A1.69,1.69,0,0,1,54,41.25a5.86,5.86,0,0,1-2,3.32C45.72,42.1,39,41.66,28.9,43.1c-7.13,1-10.61-3.16-13.69-6.85a16,16,0,0,0-3.94-3.78A22.37,22.37,0,0,1,10.8,29a20.64,20.64,0,0,1,.74-6.76,4.18,4.18,0,0,0-1.32-4.07A6.74,6.74,0,0,1,8.23,11.44Z"/><path d="M44.56,38.05a1,1,0,0,0,1,.77,1,1,0,0,0,.24,0,1,1,0,0,0,.74-1.2L46.37,37a1,1,0,0,0-1.2-.74,1,1,0,0,0-.75,1.21Z"/><path d="M39.1,41.29a1,1,0,0,0,.49-.13A1,1,0,0,0,40,39.79a3.09,3.09,0,0,1-.18-1.74,1,1,0,0,0-2-.37,4.94,4.94,0,0,0,.4,3.1A1,1,0,0,0,39.1,41.29Z"/><path d="M35.42,41.72a1,1,0,0,0,.49-.13,1,1,0,0,0,.38-1.36,3.09,3.09,0,0,1-.18-1.74,1,1,0,0,0-2-.38,5.08,5.08,0,0,0,.41,3.11A1,1,0,0,0,35.42,41.72Z"/><path d="M44.18,30a3.46,3.46,0,1,0-3.46-3.45A3.46,3.46,0,0,0,44.18,30Zm0-4.91a1.46,1.46,0,1,1-1.46,1.46A1.45,1.45,0,0,1,44.18,25.06Z"/><path d="M54.51,16.63a4.91,4.91,0,1,0-4.91,4.91A4.91,4.91,0,0,0,54.51,16.63Zm-7.82,0a2.91,2.91,0,1,1,2.91,2.91A2.91,2.91,0,0,1,46.69,16.63Z"/><path d="M34.22,17a3.13,3.13,0,1,0,3.13-3.13A3.13,3.13,0,0,0,34.22,17Zm4.25,0a1.13,1.13,0,1,1-1.12-1.13A1.12,1.12,0,0,1,38.47,17Z"/></g></svg>